<svg width="233" height="61" viewBox="0 0 233 61" fill="none" xmlns="http://www.w3.org/2000/svg">
<path d="M87.2995 47.1764C90.6202 47.1764 93.6702 46.0387 95.763 43.8364V46.6974H101.176V14.2413H95.763V25.4127C93.6702 23.2103 90.6598 22.1125 87.3458 22.1125C80.8431 22.1125 75.6079 27.0362 75.6079 34.6013C75.6079 41.9468 80.8893 47.1764 87.2995 47.1764ZM88.2634 42.2129C83.9855 42.2129 81.0214 39.1789 81.0214 34.6013C81.0214 30.1633 84.0317 27.1692 88.2634 27.1692C92.845 27.1692 95.763 30.0768 95.763 34.7343C95.763 39.3984 92.5809 42.2129 88.2634 42.2129Z" fill="#F2F4F5"/>
<path d="M127.702 36.6705C128.138 35.5727 128.442 34.3418 128.442 32.7582C128.442 26.7301 123.517 22.1591 116.968 22.1591C109.422 22.1591 104.319 27.4353 104.319 34.6478C104.319 41.9002 109.772 47.1365 117.318 47.1365C120.856 47.1365 123.338 46.5177 125.913 44.8011L124.434 40.1902C122.513 41.5941 119.76 42.2528 117.628 42.2528C113.522 42.2528 110.775 40.3632 110.036 36.6705H127.702ZM116.928 27.0362C120.288 27.0362 122.731 28.7527 122.903 32.4056H110.076C110.775 29.0189 113.264 27.0362 116.928 27.0362Z" fill="#F2F4F5"/>
<path d="M139.704 47.1366C145.329 47.1366 150.042 44.9342 150.128 39.5715C150.128 35.7457 148.082 33.3703 140.707 31.7868C136.601 30.9551 135.512 30.3829 135.512 29.0588C135.598 27.4819 137.083 27.1293 139.486 27.1293C142.629 27.1293 145.678 27.788 147.949 29.1055L148.775 23.9156C146.2 22.8644 143.15 22.1126 139.922 22.1126C134.726 22.1126 130.145 24.3149 130.019 29.5046C130.019 33.4169 132.152 35.6126 139.136 36.8036C143.322 37.5488 144.675 38.1676 144.675 39.791C144.721 41.7738 142.404 42.1664 139.922 42.1664C136.951 42.1664 133.637 41.328 130.409 39.7045L129.405 44.8012C132.369 46.3448 135.862 47.1366 139.704 47.1366Z" fill="#F2F4F5"/>
<path d="M161.602 47.1764C163.609 47.1764 165.926 46.6509 167.715 45.6395L166.711 41.2881C165.398 41.9468 163.959 42.2529 162.651 42.2529C160.559 42.2529 159.252 40.8024 159.252 38.3871V27.5219H166.929V22.6448H159.252V17.5416H157.066L152.353 22.5982L150.392 24.621V27.5219H153.838V39.3519C153.838 44.4086 156.717 47.1764 161.602 47.1764Z" fill="#F2F4F5"/>
<path d="M176.132 20.0033V14.6805H170.507V20.0033H176.132ZM176.046 46.6974V22.6448H170.639V46.6974H176.046Z" fill="#F2F4F5"/>
<path d="M194.155 22.1126C190.227 22.1126 187.566 23.6562 185.909 25.8519V22.6448H180.496V46.6974H185.909V32.3591C186.998 29.325 189.573 27.1692 192.841 27.1692C196.597 27.1692 198.426 29.192 198.426 33.0177V46.6974H203.839V32.2726C203.839 25.9384 199.957 22.1126 194.155 22.1126Z" fill="#F2F4F5"/>
<path d="M219.545 47.1765C227.137 47.1765 232.59 41.8603 232.59 34.6013C232.59 27.3888 227.137 22.1126 219.545 22.1126C212.046 22.1126 206.546 27.3888 206.546 34.6478C206.546 41.9002 211.999 47.1765 219.545 47.1765ZM219.591 42.2529C215.181 42.2529 211.999 39.2189 211.999 34.6013C211.999 30.0303 215.181 27.0827 219.545 27.0827C223.955 27.0827 227.098 30.0303 227.098 34.6478C227.098 39.2188 223.955 42.2529 219.591 42.2529Z" fill="#F2F4F5"/>
<path fill-rule="evenodd" clip-rule="evenodd" d="M5.03963 60.6832H3.17847C1.41692 60.6832 0 59.2475 0 57.4798V3.41548C0 1.64781 1.41692 0.212042 3.17847 0.212042H5.0703C6.62506 14.4537 16.7731 26.0478 30.0766 29.4442L29.0044 25.4766C28.9125 25.1369 29.1116 24.7818 29.4486 24.6892C29.6018 24.6506 29.755 24.6661 29.8928 24.7278L40.5541 29.8764C40.7455 29.9613 40.8681 30.1389 40.9064 30.3319C40.914 30.3705 40.914 30.4091 40.914 30.4477C40.914 30.494 40.914 30.5403 40.8987 30.5866C40.891 30.6329 40.8758 30.6793 40.8528 30.7256C40.7915 30.8568 40.6843 30.9571 40.5541 31.0266L29.8928 36.1675C29.5788 36.3141 29.1959 36.1829 29.0503 35.8664C28.9814 35.7275 28.9661 35.5654 29.0044 35.4187L30.0766 31.482C30.0843 31.4434 30.0996 31.4125 30.1226 31.3817C16.7272 34.6854 6.50249 46.3566 5.03963 60.6832Z" fill="#F2F4F5"/>
<path fill-rule="evenodd" clip-rule="evenodd" d="M5.23131 0.474464H34.9825C37.0475 0.474464 39.0743 0.689604 41.0246 1.08925C50.9977 3.1413 59.1583 10.1736 62.8371 19.4809C64.1908 22.9163 64.9403 26.6593 64.9403 30.5789C64.9403 34.6138 64.1449 38.4643 62.7147 41.9843C58.9824 51.1455 50.883 58.0395 41.0246 60.0685C39.0743 60.4758 37.0475 60.6832 34.9825 60.6832H5.20068C6.66148 46.4188 16.8717 34.7983 30.2483 31.5088C30.2254 31.5396 30.2101 31.5703 30.2024 31.6087L29.1317 35.5284C29.0935 35.6744 29.1088 35.8358 29.1776 35.9741C29.3229 36.2892 29.7053 36.4199 30.0189 36.2738L40.6651 31.1553C40.7951 31.0862 40.9022 30.9862 40.9634 30.8556C40.9863 30.8095 41.0016 30.7633 41.0092 30.7172C41.0245 30.6711 41.0246 30.625 41.0246 30.5789C41.0246 30.5405 41.0245 30.502 41.0169 30.4636C40.9787 30.2715 40.8563 30.0946 40.6651 30.0101L30.0189 24.8839C29.8812 24.8224 29.7283 24.807 29.5753 24.8454C29.2388 24.9376 29.04 25.2912 29.1317 25.6293L30.2024 29.5797C16.9176 26.1981 6.78388 14.6544 5.23131 0.474464Z" fill="#CCB7F9"/>
</svg>
